<?xml version="1.0" encoding="UTF-8"?>
<svg version="1.1" xmlns="http://www.w3.org/2000/svg" width="300" height="149">
<path d="M0 0 C1.36896331 6.12344665 0.33824539 10.37593943 -1.4375 16.3125 C-3.83067964 24.91349126 -4.44355661 32.68289348 -4.078125 41.5703125 C-4 45 -4 45 -5 47 C-12.3625 48.425 -12.3625 48.425 -16 46 C-16.39923759 43.25636721 -16.64633208 40.63361585 -16.8125 37.875 C-17.577956 28.50148788 -20.2822052 20.58132511 -24 12 C-25.98 12.33 -27.96 12.66 -30 13 C-29.505 14.485 -29.505 14.485 -29 16 C-28.64417042 20.28644129 -28.49157826 24.58131949 -28.33251953 28.87890625 C-28.25026966 30.99306859 -28.14675951 33.1055505 -28.04296875 35.21875 C-27.99086596 36.56244941 -27.94004161 37.90619912 -27.890625 39.25 C-27.83938477 40.47203125 -27.78814453 41.6940625 -27.73535156 42.953125 C-28 46 -28 46 -29.28417969 47.90234375 C-32.12872415 49.7220751 -34.73329754 49.29697295 -38 49 C-41.66345061 45.33654939 -41.16819893 41.04357895 -41.31640625 36.046875 C-41.33718735 35.38665344 -41.35796844 34.72643188 -41.37937927 34.04620361 C-41.44450147 31.94756985 -41.50358502 29.84881628 -41.5625 27.75 C-41.60572079 26.32290453 -41.6493362 24.89582095 -41.69335938 23.46875 C-41.80014411 19.97929278 -41.90151566 16.48970247 -42 13 C-44.475 12.505 -44.475 12.505 -47 12 C-46.94779297 13.32064453 -46.94779297 13.32064453 -46.89453125 14.66796875 C-46.86746094 15.82941406 -46.84039062 16.99085937 -46.8125 18.1875 C-46.76029297 19.91033203 -46.76029297 19.91033203 -46.70703125 21.66796875 C-47.02797908 25.31821538 -48.14892256 26.92341699 -50 30 C-49.75931713 32.22256813 -49.75931713 32.22256813 -48.75 34.3125 C-47.07840363 38.66591838 -46.16144415 42.31811956 -46 47 C-47.0625 49 -47.0625 49 -49 50 C-52.95730595 50.42098999 -55.60268371 50.09065618 -59 48 C-59.66 48.66 -60.32 49.32 -61 50 C-62.875 50.265625 -62.875 50.265625 -65 50.25 C-65.70125 50.25515625 -66.4025 50.2603125 -67.125 50.265625 C-69 50 -69 50 -71 48 C-71.39428711 46.17651367 -71.39428711 46.17651367 -71.58984375 43.98046875 C-71.66315918 43.17399902 -71.73647461 42.3675293 -71.81201172 41.53662109 C-73.83433489 14.24839019 -73.83433489 14.24839019 -73 5 C-68.6697254 0.6697254 -61.47010221 1.88168579 -55.70703125 1.8671875 C-53 2 -53 2 -50 3 C-49.67 3.66 -49.34 4.32 -49 5 C-48.34 4.01 -47.68 3.02 -47 2 C-44.30679367 1.01771815 -41.83526011 0.88863065 -38.98828125 0.9375 C-37.85724976 0.94970581 -37.85724976 0.94970581 -36.70336914 0.9621582 C-35.51988892 0.98088989 -35.51988892 0.98088989 -34.3125 1 C-29.32589177 1.05729443 -24.50560434 1.07360713 -19.5625 0.3125 C-16 0 -16 0 -14.33984375 1.35546875 C-13 3 -13 3 -12 5 C-11.38125 3.7934375 -11.38125 3.7934375 -10.75 2.5625 C-9 -0 -9 -0 -7.125 -0.875 C-4.59542424 -1.02379857 -2.45069642 -0.6126741 0 0 Z " fill="#000000" transform="translate(234,22)"/>
<path d="M0 0 C1.125 6.625 1.125 6.625 0 10 C-1.65 10.33 -3.3 10.66 -5 11 C-4.93941406 11.60360352 -4.87882812 12.20720703 -4.81640625 12.82910156 C-2.87470276 32.41790252 -2.87470276 32.41790252 -2.625 40.1875 C-2.59664062 41.06792969 -2.56828125 41.94835937 -2.5390625 42.85546875 C-3 45 -3 45 -4.7890625 46.8203125 C-8.04189766 48.55592419 -10.49161062 47.74215929 -14 47 C-17.00868983 35.56697863 -17.22023567 23.7703729 -17 12 C-19.97 11.505 -19.97 11.505 -23 11 C-22.95875 12.27875 -22.9175 13.5575 -22.875 14.875 C-22.8046875 17.0546875 -22.8046875 17.0546875 -23 19 C-23.66 19.66 -24.32 20.32 -25 21 C-25.99 21 -26.98 21 -28 21 C-27.36771484 21.62261719 -27.36771484 21.62261719 -26.72265625 22.2578125 C-21.86071469 27.72606677 -21.16635337 32.54592089 -20.71484375 39.73046875 C-21.02908073 43.33343244 -21.83037386 45.14027591 -24 48 C-27.27469236 49.63734618 -30.84196951 49.3096807 -34.4375 49.375 C-35.60249023 49.43107422 -35.60249023 49.43107422 -36.79101562 49.48828125 C-39.05859375 49.5234375 -39.05859375 49.5234375 -43 49 C-45.62053433 46.26795357 -45.95148748 44.48223754 -46.328125 40.73828125 C-46.30234375 39.60777344 -46.2765625 38.47726563 -46.25 37.3125 C-46.23453125 36.17425781 -46.2190625 35.03601563 -46.203125 33.86328125 C-46 31 -46 31 -45 29 C-44.01 28.34 -43.02 27.68 -42 27 C-42.804375 26.29875 -43.60875 25.5975 -44.4375 24.875 C-48.5736798 19.98678751 -48.28744892 13.11750256 -48 7 C-47.22265625 4.6484375 -47.22265625 4.6484375 -46 3 C-40.1459863 0.90928082 -34.19164433 0.26719818 -28 1 C-24.875 2.5 -24.875 2.5 -23 4 C-23 3.01 -23 2.02 -23 1 C-15.61882732 -1.46039089 -7.59439142 -1.3144139 0 0 Z " fill="#000000" transform="translate(132,78)"/>
<path d="M0 0 C0 1.32 0 2.64 0 4 C-35.32119341 6.8086689 -70.64281123 9.61193813 -105.96500413 12.40800995 C-110.13918877 12.73843914 -114.31336989 13.06891284 -118.48754883 13.39941406 C-119.31852031 13.46520759 -120.1494918 13.53100111 -121.00564424 13.59878838 C-134.44423062 14.6629171 -147.88252852 15.73064736 -161.32072248 16.79971898 C-175.11906753 17.89736125 -188.91771731 18.99110916 -202.71665508 20.08127499 C-211.22494048 20.75358272 -219.73297642 21.42889329 -228.24071393 22.1080997 C-234.08215213 22.57415147 -239.92388328 23.03640546 -245.76585384 23.49573541 C-249.13164968 23.7604849 -252.49723402 24.02741135 -255.86258888 24.29774094 C-259.52296005 24.59150223 -263.1837794 24.87890174 -266.84477234 25.16479492 C-267.89247997 25.25039578 -268.94018761 25.33599665 -270.01964396 25.42419147 C-277.35691397 25.98774842 -284.64269537 26.089401 -292 26 C-292 24.68 -292 23.36 -292 22 C-256.67880659 19.1913311 -221.35718877 16.38806187 -186.03499587 13.59199005 C-181.86081123 13.26156086 -177.68663011 12.93108716 -173.51245117 12.60058594 C-172.68147969 12.53479241 -171.8505082 12.46899889 -170.99435576 12.40121162 C-157.55576938 11.3370829 -144.11747148 10.26935264 -130.67927752 9.20028102 C-116.88093247 8.10263875 -103.08228269 7.00889084 -89.28334492 5.91872501 C-80.77505952 5.24641728 -72.26702358 4.57110671 -63.75928607 3.8919003 C-57.91784787 3.42584853 -52.07611672 2.96359454 -46.23414616 2.50426459 C-42.86835032 2.2395151 -39.50276598 1.97258865 -36.13741112 1.70225906 C-32.47703995 1.40849777 -28.8162206 1.12109826 -25.15522766 0.83520508 C-23.58366621 0.70680378 -23.58366621 0.70680378 -21.98035604 0.57580853 C-14.64308603 0.01225158 -7.35730463 -0.089401 0 0 Z " fill="#FF0000" transform="translate(300,119)"/>
<path d="M0 0 C0 1.32 0 2.64 0 4 C-35.32119341 6.8086689 -70.64281123 9.61193813 -105.96500413 12.40800995 C-110.13918877 12.73843914 -114.31336989 13.06891284 -118.48754883 13.39941406 C-119.31852031 13.46520759 -120.1494918 13.53100111 -121.00564424 13.59878838 C-134.44423062 14.6629171 -147.88252852 15.73064736 -161.32072248 16.79971898 C-175.11906753 17.89736125 -188.91771731 18.99110916 -202.71665508 20.08127499 C-211.22494048 20.75358272 -219.73297642 21.42889329 -228.24071393 22.1080997 C-234.08215213 22.57415147 -239.92388328 23.03640546 -245.76585384 23.49573541 C-249.13164968 23.7604849 -252.49723402 24.02741135 -255.86258888 24.29774094 C-259.52296005 24.59150223 -263.1837794 24.87890174 -266.84477234 25.16479492 C-267.89247997 25.25039578 -268.94018761 25.33599665 -270.01964396 25.42419147 C-277.35691397 25.98774842 -284.64269537 26.089401 -292 26 C-292 24.68 -292 23.36 -292 22 C-256.67880659 19.1913311 -221.35718877 16.38806187 -186.03499587 13.59199005 C-181.86081123 13.26156086 -177.68663011 12.93108716 -173.51245117 12.60058594 C-172.68147969 12.53479241 -171.8505082 12.46899889 -170.99435576 12.40121162 C-157.55576938 11.3370829 -144.11747148 10.26935264 -130.67927752 9.20028102 C-116.88093247 8.10263875 -103.08228269 7.00889084 -89.28334492 5.91872501 C-80.77505952 5.24641728 -72.26702358 4.57110671 -63.75928607 3.8919003 C-57.91784787 3.42584853 -52.07611672 2.96359454 -46.23414616 2.50426459 C-42.86835032 2.2395151 -39.50276598 1.97258865 -36.13741112 1.70225906 C-32.47703995 1.40849777 -28.8162206 1.12109826 -25.15522766 0.83520508 C-23.58366621 0.70680378 -23.58366621 0.70680378 -21.98035604 0.57580853 C-14.64308603 0.01225158 -7.35730463 -0.089401 0 0 Z " fill="#2C00FF" transform="translate(300,0)"/>
<path d="M0 0 C1.15822266 -0.04350586 1.15822266 -0.04350586 2.33984375 -0.08789062 C4.59375 -0.11328125 4.59375 -0.11328125 8.5 0.3125 C11.40505898 3.20878994 11.93684616 5.62937269 12.23046875 9.64453125 C12.31143799 10.68399902 12.39240723 11.7234668 12.47583008 12.79443359 C12.54568115 13.89352051 12.61553223 14.99260742 12.6875 16.125 C12.76572998 17.24471191 12.84395996 18.36442383 12.92456055 19.51806641 C14.47561997 42.9649428 14.47561997 42.9649428 12.16796875 46.15234375 C9.48464936 48.01872749 6.66935303 48.11834144 3.5 48.3125 C2.58863281 48.37695312 1.67726562 48.44140625 0.73828125 48.5078125 C-0.70998047 48.56582031 -0.70998047 48.56582031 -2.1875 48.625 C-3.09886719 48.66238281 -4.01023438 48.69976562 -4.94921875 48.73828125 C-8.3400575 48.17227601 -9.33219464 46.93674432 -11.5 44.3125 C-12.13769531 41.90917969 -12.13769531 41.90917969 -12.328125 39.234375 C-12.44462402 37.75070435 -12.44462402 37.75070435 -12.56347656 36.23706055 C-12.6250293 35.18945557 -12.68658203 34.14185059 -12.75 33.0625 C-12.82444336 31.99233643 -12.89888672 30.92217285 -12.97558594 29.81958008 C-14.53591496 5.86637244 -14.53591496 5.86637244 -11.5 1.3125 C-7.66137961 0.03295987 -4.0019711 0.05010815 0 0 Z M-1.5 12.3125 C-0.5 15.3125 -0.5 15.3125 -0.5 15.3125 Z M-0.5 19.3125 C-0.5 22.9425 -0.5 26.5725 -0.5 30.3125 C-0.17 30.3125 0.16 30.3125 0.5 30.3125 C0.5 26.6825 0.5 23.0525 0.5 19.3125 C0.17 19.3125 -0.16 19.3125 -0.5 19.3125 Z M0.5 34.3125 C1.5 36.3125 1.5 36.3125 1.5 36.3125 Z " fill="#F6C685" transform="translate(210.5,71.6875)"/>
<path d="M0 0 C0.87591797 0.00322266 1.75183594 0.00644531 2.65429688 0.00976562 C3.52634766 -0.00634766 4.39839844 -0.02246094 5.296875 -0.0390625 C6.55467773 -0.0400293 6.55467773 -0.0400293 7.83789062 -0.04101562 C8.60544678 -0.04399658 9.37300293 -0.04697754 10.16381836 -0.05004883 C12.78135221 0.4246496 13.6410734 1.20429896 15.21679688 3.32226562 C15.70893192 6.04816335 16.0299505 8.57448969 16.21679688 11.32226562 C16.29824951 12.42127197 16.29824951 12.42127197 16.38134766 13.54248047 C16.75675772 19.13017563 16.98853438 24.72690795 17.21679688 30.32226562 C17.27222656 31.63710938 17.32765625 32.95195313 17.38476562 34.30664062 C17.41183594 35.44617187 17.43890625 36.58570313 17.46679688 37.75976562 C17.49257812 38.74847656 17.51835937 39.7371875 17.54492188 40.75585938 C17.15482522 43.8069725 16.35849255 45.1404445 14.21679688 47.32226562 C8.18127739 48.86324932 1.39804915 48.87567061 -4.78320312 48.32226562 C-7.7551521 45.35031665 -7.8830034 42.33481437 -8.09960938 38.25976562 C-8.14174561 37.4719873 -8.18388184 36.68420898 -8.22729492 35.87255859 C-8.26636963 35.03096191 -8.30544434 34.18936523 -8.34570312 33.32226562 C-8.38671143 32.45102051 -8.42771973 31.57977539 -8.4699707 30.68212891 C-8.75076464 24.18840581 -8.91784694 17.69679481 -8.97070312 11.19726562 C-8.98367432 10.33875 -8.99664551 9.48023438 -9.01000977 8.59570312 C-9.01319439 6.50319352 -8.90768752 4.41107156 -8.78320312 2.32226562 C-5.96326442 -0.49767308 -3.85416153 0.03263724 0 0 Z " fill="#F5A436" transform="translate(119.783203125,26.677734375)"/>
<path d="M0 0 C1.4819609 4.72878882 2.32078194 8.98847064 2.6328125 13.96484375 C2.75849609 15.90713867 2.75849609 15.90713867 2.88671875 17.88867188 C2.92587402 18.55439209 2.9650293 19.2201123 3.00537109 19.90600586 C3.1245263 21.92945585 3.25460983 23.95196779 3.38671875 25.97460938 C4.27428312 40.14041856 4.27428312 40.14041856 4 45 C1.59179639 47.40820361 0.34977063 47.68097423 -3 48 C-5.70637529 47.02269781 -6.70256222 46.59487555 -8 44 C-8.33 44.66 -8.66 45.32 -9 46 C-11.32304053 48.32304053 -11.90287345 48.31765651 -15.0625 48.375 C-19 48 -19 48 -21 46 C-21.41064453 43.671875 -21.41064453 43.671875 -21.6328125 40.75 C-21.71684326 39.67419678 -21.80087402 38.59839355 -21.88745117 37.48999023 C-21.96584229 36.33829346 -22.0442334 35.18659668 -22.125 34 C-22.20919189 32.833479 -22.29338379 31.66695801 -22.38012695 30.46508789 C-22.85528843 23.45513215 -23.18019899 16.46398793 -23.1875 9.4375 C-23.18830566 8.68919922 -23.18911133 7.94089844 -23.18994141 7.16992188 C-23.13595463 2.13595463 -23.13595463 2.13595463 -22 1 C-14.63366337 0.52475248 -14.63366337 0.52475248 -12 2.5 C-11.505 3.2425 -11.505 3.2425 -11 4 C-10.67 3.01 -10.34 2.02 -10 1 C-6.78548731 -0.60725635 -3.56387464 -0.05748185 0 0 Z " fill="#000000" transform="translate(248,70)"/>
<path d="M0 0 C3.25105799 2.16737199 3.41430194 2.40463277 4.2902832 5.92724609 C4.49671951 6.7350351 4.70315582 7.5428241 4.91584778 8.37509155 C5.12537582 9.24904572 5.33490387 10.12299988 5.55078125 11.0234375 C5.7732402 11.92115875 5.99569916 12.81888 6.22489929 13.74380493 C6.69206381 15.64383902 7.15315538 17.54537498 7.60864258 19.44824219 C8.30917698 22.36118231 9.03700882 25.26634154 9.76757812 28.171875 C10.21781493 30.01782286 10.66643689 31.8641655 11.11328125 33.7109375 C11.33293045 34.5808432 11.55257965 35.4507489 11.77888489 36.34701538 C11.96956039 37.1611087 12.1602359 37.97520203 12.35668945 38.81396484 C12.61625175 39.88413345 12.61625175 39.88413345 12.88105774 40.97592163 C13.03452231 43.58747715 12.49525722 44.8684163 11 47 C7.14090895 47.91214879 4.78396692 48.26132231 1 47 C-0.1875 44.9375 -0.1875 44.9375 -1 43 C-1.99 45.475 -1.99 45.475 -3 48 C-6.3 48 -9.6 48 -13 48 C-14.05285228 43.16698766 -13.8800068 38.83314131 -13.29296875 33.96875 C-13.20751297 33.21460815 -13.12205719 32.46046631 -13.03401184 31.68347168 C-12.85214178 30.09629436 -12.66617063 28.50958216 -12.47631836 26.92333984 C-12.1885292 24.50863552 -11.91656766 22.09252289 -11.64648438 19.67578125 C-11.46708798 18.12749471 -11.28677972 16.5793135 -11.10546875 15.03125 C-11.02515915 14.31545776 -10.94484955 13.59966553 -10.86210632 12.86218262 C-10.35371661 8.69951286 -9.60209769 4.8850406 -8 1 C-5.22899606 -0.38550197 -3.0665294 -0.1877467 0 0 Z " fill="#000000" transform="translate(148,76)"/>
<path d="M0 0 C1.50662097 3.01324195 1.17770373 5.68286377 1 9 C-1 11 -1 11 -4.625 11.125 C-5.73875 11.08375 -6.8525 11.0425 -8 11 C-7.67 12.98 -7.34 14.96 -7 17 C-6.05125 16.95875 -5.1025 16.9175 -4.125 16.875 C-1 17 -1 17 1 19 C1.33870968 25.32258065 1.33870968 25.32258065 0 28 C-2.32156597 28.40729228 -4.6568787 28.74438677 -7 29 C-6.67 30.98 -6.34 32.96 -6 35 C-4.0509375 35.185625 -4.0509375 35.185625 -2.0625 35.375 C0.15234375 35.5859375 0.15234375 35.5859375 2 36 C3.50662097 39.01324195 3.17770373 41.68286377 3 45 C0.10065706 47.89934294 -3.03962833 47.53745115 -6.9375 47.75 C-7.66646484 47.80542969 -8.39542969 47.86085937 -9.14648438 47.91796875 C-13.0420655 48.15363177 -14.66753587 48.22164275 -18 46 C-19.42753899 41.50367959 -19.34372106 36.56183138 -19.5625 31.875 C-19.6035083 31.00568848 -19.6445166 30.13637695 -19.68676758 29.24072266 C-19.96040305 22.9533386 -20.13348974 16.6681061 -20.1875 10.375 C-20.20047119 9.56401855 -20.21344238 8.75303711 -20.22680664 7.91748047 C-20.22999247 5.94354123 -20.12444422 3.9700152 -20 2 C-15.47098233 -2.52901767 -5.9197934 -1.41560277 0 0 Z " fill="#000000" transform="translate(158,26)"/>
<path d="M0 0 C0.78632813 -0.02835937 1.57265625 -0.05671875 2.3828125 -0.0859375 C3.44822266 -0.12460938 3.44822266 -0.12460938 4.53515625 -0.1640625 C7.05664867 0.2690773 7.91462433 1.14826392 9.4453125 3.1640625 C9.85149257 6.41350308 10.04158074 8.31225074 8.1328125 11.0390625 C6.4453125 12.1640625 6.4453125 12.1640625 3.4453125 12.1640625 C3.7753125 13.1540625 4.1053125 14.1440625 4.4453125 15.1640625 C5.27579526 23.06902801 5.55211939 31.03146444 5.6328125 38.9765625 C5.64578369 39.66387451 5.65875488 40.35118652 5.67211914 41.05932617 C5.67533971 42.7625806 5.56889735 44.46529447 5.4453125 46.1640625 C3.4453125 48.1640625 3.4453125 48.1640625 1.5703125 48.4296875 C0.8690625 48.42453125 0.1678125 48.419375 -0.5546875 48.4140625 C-1.2559375 48.41921875 -1.9571875 48.424375 -2.6796875 48.4296875 C-4.5546875 48.1640625 -4.5546875 48.1640625 -6.5546875 46.1640625 C-6.96533203 43.66137695 -6.96533203 43.66137695 -7.1875 40.52734375 C-7.27128906 39.39232422 -7.35507813 38.25730469 -7.44140625 37.08789062 C-7.52003906 35.89615234 -7.59867188 34.70441406 -7.6796875 33.4765625 C-7.80923828 31.71795898 -7.80923828 31.71795898 -7.94140625 29.92382812 C-8.33964682 24.32633573 -8.66971488 18.77575549 -8.5546875 13.1640625 C-9.3590625 13.0196875 -10.1634375 12.8753125 -10.9921875 12.7265625 C-13.5546875 12.1640625 -13.5546875 12.1640625 -14.5546875 11.1640625 C-14.82783565 5.42795139 -14.82783565 5.42795139 -14.5546875 3.1640625 C-10.87414034 -0.51648466 -4.99325204 0.32066756 0 0 Z " fill="#000000" transform="translate(171.5546875,73.8359375)"/>
<path d="M0 0 C3.5 0.5 3.5 0.5 5.18676758 2.5769043 C6.78819891 6.14149574 6.93140267 8.86616971 7.01171875 12.76953125 C7.02966995 13.45053391 7.04762115 14.13153656 7.06611633 14.83317566 C7.11998631 16.9928888 7.15403782 19.15238399 7.1875 21.3125 C7.22069391 22.78323331 7.25518549 24.25393793 7.29101562 25.72460938 C7.37569716 29.31619687 7.44261961 32.90786076 7.5 36.5 C8.799375 36.479375 10.09875 36.45875 11.4375 36.4375 C12.79165633 36.41600546 14.14756083 36.42851801 15.5 36.5 C16.5 37.5 16.5 37.5 16.59765625 39.56640625 C16.58605469 40.39011719 16.57445313 41.21382812 16.5625 42.0625 C16.55347656 42.88878906 16.54445313 43.71507812 16.53515625 44.56640625 C16.52355469 45.20449219 16.51195313 45.84257813 16.5 46.5 C10.83311698 49.01861468 4.59941609 49.31853636 -1.5 48.5 C-3.12353516 47.42700195 -3.12353516 47.42700195 -4.5 45.5 C-5.02416992 42.27294922 -5.02416992 42.27294922 -5.23046875 38.3046875 C-5.270616 37.59780792 -5.31076324 36.89092834 -5.35212708 36.16262817 C-5.47708102 33.90056797 -5.58224731 31.63805333 -5.6875 29.375 C-5.76894797 27.87493247 -5.8516175 26.37493074 -5.93554688 24.875 C-6.16028506 20.75109697 -6.33512312 16.62672412 -6.5 12.5 C-6.5510791 11.52450195 -6.6021582 10.54900391 -6.65478516 9.54394531 C-6.84830277 3.95569995 -6.84830277 3.95569995 -5.20385742 1.80419922 C-3.5 0.5 -3.5 0.5 0 0 Z " fill="#000000" transform="translate(79.5,28.5)"/>
<path d="M0 0 C3.5625 0.3125 3.5625 0.3125 5.23950195 1.39819336 C7.22318251 4.26847187 7.10621704 6.79402686 7.29296875 10.25390625 C7.333116 10.93621811 7.37326324 11.61852997 7.41462708 12.32151794 C7.53954727 14.50551271 7.64468919 16.6899814 7.75 18.875 C7.83145908 20.31842893 7.91412907 21.76179006 7.99804688 23.20507812 C9.17252275 44.0924545 9.17252275 44.0924545 7.5625 47.3125 C0.2 48.7375 0.2 48.7375 -3.4375 46.3125 C-4.86503899 41.81617959 -4.78122106 36.87433138 -5 32.1875 C-5.0410083 31.31818848 -5.0820166 30.44887695 -5.12426758 29.55322266 C-5.39790305 23.2658386 -5.57098974 16.9806061 -5.625 10.6875 C-5.63797119 9.87651855 -5.65094238 9.06553711 -5.66430664 8.22998047 C-5.66749247 6.25604123 -5.56194422 4.2825152 -5.4375 2.3125 C-3.4375 0.3125 -3.4375 0.3125 0 0 Z " fill="#000000" transform="translate(101.4375,27.6875)"/>
<path d="M0 0 C2.37322917 1.68719832 2.93656274 2.68955041 3.52416992 5.56518555 C3.62628784 7.08559448 3.62628784 7.08559448 3.73046875 8.63671875 C3.81135742 9.764729 3.89224609 10.89273926 3.97558594 12.05493164 C4.04551758 13.2536792 4.11544922 14.45242676 4.1875 15.6875 C4.26645508 16.90236084 4.34541016 18.11722168 4.42675781 19.36889648 C5.6503659 39.27636435 5.6503659 39.27636435 5 46 C3 48 3 48 -0.4375 48.3125 C-4 48 -4 48 -5.67700195 46.80102539 C-7.41067801 44.44093528 -7.51430731 42.78300573 -7.73046875 39.87109375 C-7.81143799 38.8437915 -7.89240723 37.81648926 -7.97583008 36.75805664 C-8.04568115 35.66227295 -8.11553223 34.56648926 -8.1875 33.4375 C-8.30484497 31.76385376 -8.30484497 31.76385376 -8.42456055 30.05639648 C-8.87299655 23.23009528 -9.21923831 16.40335165 -9.3125 9.5625 C-9.33014404 8.81863037 -9.34778809 8.07476074 -9.3659668 7.30834961 C-9.36328125 5.25390625 -9.36328125 5.25390625 -9 2 C-5.53076119 -0.31282587 -4.07794425 -0.42478586 0 0 Z " fill="#000000" transform="translate(191,73)"/>
<path d="M0 0 C0.87591797 0.00322266 1.75183594 0.00644531 2.65429688 0.00976562 C3.52634766 -0.00634766 4.39839844 -0.02246094 5.296875 -0.0390625 C6.55467773 -0.0400293 6.55467773 -0.0400293 7.83789062 -0.04101562 C8.60544678 -0.04399658 9.37300293 -0.04697754 10.16381836 -0.05004883 C12.78135221 0.4246496 13.6410734 1.20429896 15.21679688 3.32226562 C15.70893192 6.04816335 16.0299505 8.57448969 16.21679688 11.32226562 C16.29824951 12.42127197 16.29824951 12.42127197 16.38134766 13.54248047 C16.75675772 19.13017563 16.98853438 24.72690795 17.21679688 30.32226562 C17.27222656 31.63710938 17.32765625 32.95195313 17.38476562 34.30664062 C17.41183594 35.44617187 17.43890625 36.58570313 17.46679688 37.75976562 C17.49257812 38.74847656 17.51835937 39.7371875 17.54492188 40.75585938 C17.15482522 43.8069725 16.35849255 45.1404445 14.21679688 47.32226562 C8.18127739 48.86324932 1.39804915 48.87567061 -4.78320312 48.32226562 C-7.7551521 45.35031665 -7.8830034 42.33481437 -8.09960938 38.25976562 C-8.14174561 37.4719873 -8.18388184 36.68420898 -8.22729492 35.87255859 C-8.26636963 35.03096191 -8.30544434 34.18936523 -8.34570312 33.32226562 C-8.38671143 32.45102051 -8.42771973 31.57977539 -8.4699707 30.68212891 C-8.75076464 24.18840581 -8.91784694 17.69679481 -8.97070312 11.19726562 C-8.98367432 10.33875 -8.99664551 9.48023438 -9.01000977 8.59570312 C-9.01319439 6.50319352 -8.90768752 4.41107156 -8.78320312 2.32226562 C-5.96326442 -0.49767308 -3.85416153 0.03263724 0 0 Z M-3.78320312 3.32226562 C-3.86348961 12.63549837 -3.79353165 21.89398919 -3.34570312 31.19726562 C-3.30646729 32.05868164 -3.26723145 32.92009766 -3.22680664 33.80761719 C-3.18483154 34.61424805 -3.14285645 35.42087891 -3.09960938 36.25195312 C-3.06295166 36.96593262 -3.02629395 37.67991211 -2.98852539 38.41552734 C-2.82785059 40.54305786 -2.82785059 40.54305786 -1.78320312 43.32226562 C3.95521938 43.52639923 8.82218735 43.59368016 14.21679688 41.32226562 C14.50690213 31.63520556 14.50690213 31.63520556 12.21679688 22.32226562 C11.88679688 21.99226563 11.55679688 21.66226563 11.21679688 21.32226562 C11.87679687 20.99226563 12.53679687 20.66226563 13.21679688 20.32226562 C13.33716352 14.54466679 13.04885507 9.04266573 12.21679688 3.32226562 C6.93679687 3.32226562 1.65679687 3.32226562 -3.78320312 3.32226562 Z " fill="#000000" transform="translate(119.783203125,26.677734375)"/>
<path d="M0 0 C1.15822266 -0.04350586 1.15822266 -0.04350586 2.33984375 -0.08789062 C4.59375 -0.11328125 4.59375 -0.11328125 8.5 0.3125 C11.40505898 3.20878994 11.93684616 5.62937269 12.23046875 9.64453125 C12.31143799 10.68399902 12.39240723 11.7234668 12.47583008 12.79443359 C12.54568115 13.89352051 12.61553223 14.99260742 12.6875 16.125 C12.76572998 17.24471191 12.84395996 18.36442383 12.92456055 19.51806641 C14.47561997 42.9649428 14.47561997 42.9649428 12.16796875 46.15234375 C9.48464936 48.01872749 6.66935303 48.11834144 3.5 48.3125 C2.58863281 48.37695312 1.67726562 48.44140625 0.73828125 48.5078125 C-0.70998047 48.56582031 -0.70998047 48.56582031 -2.1875 48.625 C-3.09886719 48.66238281 -4.01023438 48.69976562 -4.94921875 48.73828125 C-8.3400575 48.17227601 -9.33219464 46.93674432 -11.5 44.3125 C-12.13769531 41.90917969 -12.13769531 41.90917969 -12.328125 39.234375 C-12.44462402 37.75070435 -12.44462402 37.75070435 -12.56347656 36.23706055 C-12.6250293 35.18945557 -12.68658203 34.14185059 -12.75 33.0625 C-12.82444336 31.99233643 -12.89888672 30.92217285 -12.97558594 29.81958008 C-14.53591496 5.86637244 -14.53591496 5.86637244 -11.5 1.3125 C-7.66137961 0.03295987 -4.0019711 0.05010815 0 0 Z M-8.5 4.3125 C-9.09670767 13.44351497 -8.33994721 22.59115586 -7.5625 31.6875 C-7.47572998 32.71633301 -7.38895996 33.74516602 -7.29956055 34.80517578 C-7.28278307 39.40995272 -7.28278307 39.40995272 -5.5 43.3125 C-3.94135268 43.43871814 -2.37620583 43.48831311 -0.8125 43.5 C0.03699219 43.51417969 0.88648438 43.52835938 1.76171875 43.54296875 C4.91002918 43.2779897 7.54637718 42.40659454 10.5 41.3125 C10.80370705 32.67372177 10.26911972 24.16925546 9.5625 15.5625 C9.47564941 14.47839844 9.38879883 13.39429687 9.29931641 12.27734375 C9.16855713 10.75560547 9.16855713 10.75560547 9.03515625 9.203125 C8.956604 8.28563477 8.87805176 7.36814453 8.79711914 6.42285156 C8.71829944 4.33025982 8.71829944 4.33025982 7.5 3.3125 C4.98863896 3.21274968 2.51096585 3.17367817 0 3.1875 C-0.70253906 3.18363281 -1.40507812 3.17976563 -2.12890625 3.17578125 C-5.60428808 2.86859069 -5.60428808 2.86859069 -8.5 4.3125 Z " fill="#000000" transform="translate(210.5,71.6875)"/>
<path d="M0 0 C1.32 0 2.64 0 4 0 C5.2377076 3.71312279 5.34145539 7.29271304 5.53515625 11.16796875 C5.57813339 11.96278152 5.62111053 12.7575943 5.66539001 13.57649231 C5.80166216 16.11330467 5.93215108 18.65037706 6.0625 21.1875 C6.15391596 22.9082234 6.24570828 24.62892686 6.33789062 26.34960938 C6.56296046 30.56618724 6.78284432 34.78300745 7 39 C5.515 39.495 5.515 39.495 4 40 C2.89442408 37.64648632 1.79051018 35.2922159 0.6875 32.9375 C0.37876953 32.28072266 0.07003906 31.62394531 -0.24804688 30.94726562 C-0.55419922 30.29306641 -0.86035156 29.63886719 -1.17578125 28.96484375 C-1.45333252 28.3730835 -1.73088379 27.78132324 -2.0168457 27.17163086 C-3.39150125 24.13523625 -4.68703855 21.06357672 -6 18 C-6 25.26 -6 32.52 -6 40 C-7.32 40 -8.64 40 -10 40 C-11.21618838 26.98257939 -12.37739565 14.08304907 -12 1 C-10.14746094 1.20678711 -10.14746094 1.20678711 -8 2 C-6.71972656 4.04125977 -6.71972656 4.04125977 -5.640625 6.69140625 C-5.10743652 7.96673218 -5.10743652 7.96673218 -4.56347656 9.26782227 C-4.1300293 10.35506592 -3.69658203 11.44230957 -3.25 12.5625 C-1.8475 16.006875 -0.445 19.45125 1 23 C0.67 15.41 0.34 7.82 0 0 Z " fill="#F5C684" transform="translate(242,73)"/>
<path d="M0 0 C1.07765625 0.00902344 2.1553125 0.01804687 3.265625 0.02734375 C4.08546875 0.03894531 4.9053125 0.05054687 5.75 0.0625 C7.3998007 3.36210141 7.13258361 7.05377884 7.3125 10.6875 C7.35568359 11.48929688 7.39886719 12.29109375 7.44335938 13.1171875 C7.54951457 15.0987511 7.65026855 17.08060271 7.75 19.0625 C5.275 20.5475 5.275 20.5475 2.75 22.0625 C3.183125 23.11050781 3.61625 24.15851562 4.0625 25.23828125 C4.62527335 26.61707596 5.18775835 27.99598839 5.75 29.375 C6.03617188 30.06529297 6.32234375 30.75558594 6.6171875 31.46679688 C7.83910744 34.47795674 8.75 36.78136984 8.75 40.0625 C6.48828125 40.1171875 6.48828125 40.1171875 3.75 39.0625 C2.02264104 36.28010269 1.01319287 33.26972814 -0.0625 30.1875 C-0.37380859 29.35863281 -0.68511719 28.52976562 -1.00585938 27.67578125 C-3.25 21.56974588 -3.25 21.56974588 -3.25 18.0625 C-1.27 17.7325 0.71 17.4025 2.75 17.0625 C2.75 12.7725 2.75 8.4825 2.75 4.0625 C-0.22 4.0625 -3.19 4.0625 -6.25 4.0625 C-5.92 5.0525 -5.59 6.0425 -5.25 7.0625 C-5.10409944 8.46252082 -5.00329016 9.86756137 -4.93359375 11.2734375 C-4.89161865 12.10069336 -4.84964355 12.92794922 -4.80639648 13.78027344 C-4.74754272 15.09560059 -4.74754272 15.09560059 -4.6875 16.4375 C-4.6450415 17.32985352 -4.60258301 18.22220703 -4.55883789 19.14160156 C-4.2463499 26.12070963 -4.13526245 33.07625806 -4.25 40.0625 C-5.57 40.0625 -6.89 40.0625 -8.25 40.0625 C-9.14315016 34.50095151 -9.55203128 28.99941285 -9.8125 23.375 C-9.8549585 22.49811523 -9.89741699 21.62123047 -9.94116211 20.71777344 C-10.24111898 14.16338378 -10.37002518 7.62387641 -10.25 1.0625 C-6.78777385 -0.00473961 -3.60960734 -0.03923486 0 0 Z " fill="#F5A436" transform="translate(176.25,26.9375)"/>
<path d="M0 0 C1.32 0 2.64 0 4 0 C7.70673285 12.91835833 10.97281468 25.90620679 14 39 C11.525 39.495 11.525 39.495 9 40 C8.67 37.03 8.34 34.06 8 31 C4.04 31.495 4.04 31.495 0 32 C0 34.31 0 36.62 0 39 C-1.65 39.66 -3.3 40.32 -5 41 C-4.45297921 35.64269357 -3.901525 30.28586917 -3.34594727 24.92944336 C-3.15755067 23.10697813 -2.97036872 21.28438692 -2.78442383 19.46166992 C-2.51702582 16.84259559 -2.24527081 14.22400459 -1.97265625 11.60546875 C-1.89032242 10.78974899 -1.80798859 9.97402924 -1.72315979 9.1335907 C-1.38713158 5.93926073 -1.01914672 3.05744015 0 0 Z " fill="#F3C483" transform="translate(144,79)"/>
<path d="M0 0 C2.13586678 3.20380017 2.23132175 4.01939967 2.125 7.6875 C2.10695313 8.49574219 2.08890625 9.30398437 2.0703125 10.13671875 C2.04710938 10.75160156 2.02390625 11.36648437 2 12 C0.68 12.33 -0.64 12.66 -2 13 C-2.33 10.03 -2.66 7.06 -3 4 C-5.31 4 -7.62 4 -10 4 C-10.24374648 7.65619721 -10.25397256 9.60462815 -9 13 C-7.04199248 15.03723326 -5.11194206 16.89141755 -3 18.75 C1.64279263 22.8992515 3.8445474 25.63053978 4.375 32.125 C4.3984375 35.3828125 4.3984375 35.3828125 4 38 C2 40 2 40 -1.2578125 40.1953125 C-3.17207031 40.16050781 -3.17207031 40.16050781 -5.125 40.125 C-7.04699219 40.09792969 -7.04699219 40.09792969 -9.0078125 40.0703125 C-9.99523437 40.04710937 -10.98265625 40.02390625 -12 40 C-13.32229189 37.35541621 -13.09677194 35.32238699 -13.0625 32.375 C-13.05347656 31.37210938 -13.04445313 30.36921875 -13.03515625 29.3359375 C-13.01775391 28.17964844 -13.01775391 28.17964844 -13 27 C-11.68 27 -10.36 27 -9 27 C-8.67 30.3 -8.34 33.6 -8 37 C-4.535 36.505 -4.535 36.505 -1 36 C-0.83659445 30.93442793 -0.95579109 28.27727487 -4.22265625 24.28125 C-6.00031896 22.54195411 -7.80970553 20.83436765 -9.65234375 19.1640625 C-13.08848871 15.99663437 -14.37941857 13.55093052 -15 9 C-15.03824623 6.66698014 -15.04574284 4.33288492 -15 2 C-10.18101113 0.02297893 -5.17455456 -0.96246715 0 0 Z " fill="#F3C484" transform="translate(104,82)"/>
<path d="M0 0 C0 1.32 0 2.64 0 4 C-2.64 4.33 -5.28 4.66 -8 5 C-8 9.29 -8 13.58 -8 18 C-5.36 18 -2.72 18 0 18 C0 19.32 0 20.64 0 22 C-2.64 22 -5.28 22 -8 22 C-7.67 26.95 -7.34 31.9 -7 37 C-2.545 36.505 -2.545 36.505 2 36 C2 37.32 2 38.64 2 40 C-4.435 40.495 -4.435 40.495 -11 41 C-11.87189649 38.38431054 -12.17790189 36.62732635 -12.31640625 33.9296875 C-12.35838135 33.12305664 -12.40035645 32.31642578 -12.44360352 31.48535156 C-12.48283936 30.62393555 -12.5220752 29.76251953 -12.5625 28.875 C-12.6049585 27.99295898 -12.64741699 27.11091797 -12.69116211 26.20214844 C-13.06526405 17.79878014 -13.09803917 9.40958197 -13 1 C-11.58366664 0.83052421 -10.16691467 0.66454493 -8.75 0.5 C-7.56664062 0.36078125 -7.56664062 0.36078125 -6.359375 0.21875 C-4 0 -4 0 0 0 Z " fill="#F5A437" transform="translate(156,28)"/>
<path d="M0 0 C0.33699997 4.37472563 0.66895367 8.74982013 1 13.125 C1.09539062 14.3625 1.19078125 15.6 1.2890625 16.875 C1.42441406 18.67324219 1.42441406 18.67324219 1.5625 20.5078125 C1.64628906 21.60754395 1.73007813 22.70727539 1.81640625 23.84033203 C1.99430583 26.90200278 2.03231628 29.93399307 2 33 C-0.97 33 -3.94 33 -7 33 C-7.33799692 28.97954457 -7.66956119 24.95858312 -8 20.9375 C-8.09539062 19.80376953 -8.19078125 18.67003906 -8.2890625 17.50195312 C-8.7395756 11.98316765 -9.12859272 6.53752411 -9 1 C-2.25 0 -2.25 0 0 0 Z M-6 6 C-5 9 -5 9 -5 9 Z M-5 13 C-5 16.63 -5 20.26 -5 24 C-4.67 24 -4.34 24 -4 24 C-4 20.37 -4 16.74 -4 13 C-4.33 13 -4.66 13 -5 13 Z M-4 28 C-3 30 -3 30 -3 30 Z " fill="#000000" transform="translate(215,78)"/>
<path d="M0 0 C-0.42729347 5.23434506 -1.53356737 9.84518981 -3.0625 14.875 C-5.60740957 23.54778394 -5.36945906 32.04061773 -5 41 C-6.32 41 -7.64 41 -9 41 C-10.06648767 37.80053699 -10.03405483 35.5480934 -10.0625 32.1875 C-10.65199538 22.1660785 -14.60682842 13.15743174 -18.28149414 3.91088867 C-19 2 -19 2 -19 1 C-17.35 1 -15.7 1 -14 1 C-13.65066406 1.99902344 -13.30132812 2.99804688 -12.94140625 4.02734375 C-12.48192081 5.33078205 -12.02227721 6.6341646 -11.5625 7.9375 C-11.33240234 8.59685547 -11.10230469 9.25621094 -10.86523438 9.93554688 C-9.88035408 13.22328622 -9.88035408 13.22328622 -8 16 C-7.73445312 14.92878906 -7.46890625 13.85757813 -7.1953125 12.75390625 C-6.83896832 11.35666195 -6.48217418 9.95953236 -6.125 8.5625 C-5.95097656 7.85544922 -5.77695313 7.14839844 -5.59765625 6.41992188 C-5.12648392 4.59631043 -4.56876943 2.79556771 -4 1 C-2 0 -2 0 0 0 Z " fill="#F2A236" transform="translate(232,24)"/>
<path d="M0 0 C0 1.32 0 2.64 0 4 C-1.98 4 -3.96 4 -6 4 C-5.93941406 4.73524902 -5.87882812 5.47049805 -5.81640625 6.22802734 C-5.54010785 9.61002607 -5.27001665 12.99249417 -5 16.375 C-4.90460938 17.53128906 -4.80921875 18.68757813 -4.7109375 19.87890625 C-4.17901892 26.60387693 -3.86118655 33.25405187 -4 40 C-5.98 40.495 -5.98 40.495 -8 41 C-9.30816011 28.9604041 -10.33505359 17.11777167 -10 5 C-12.31 5 -14.62 5 -17 5 C-17 3.68 -17 2.36 -17 1 C-14.9168207 0.83141902 -12.83344956 0.66520745 -10.75 0.5 C-9.58984375 0.4071875 -8.4296875 0.314375 -7.234375 0.21875 C-4.82731342 0.05595356 -2.41256049 0 0 0 Z " fill="#F4C584" transform="translate(130,80)"/>
<path d="M0 0 C4.95 0 9.9 0 15 0 C15 1.32 15 2.64 15 4 C13.02 4 11.04 4 9 4 C9.15847412 5.01006104 9.31694824 6.02012207 9.48022461 7.06079102 C9.96624683 10.74419564 10.20094388 14.31605321 10.31640625 18.02734375 C10.37924805 19.95610352 10.37924805 19.95610352 10.44335938 21.92382812 C10.483157 23.26171625 10.52286951 24.59960691 10.5625 25.9375 C10.60576654 27.30274562 10.64938321 28.66798018 10.69335938 30.03320312 C10.79901153 33.35537652 10.90111395 36.67761946 11 40 C9.68 40 8.36 40 7 40 C5.85424787 37.70849573 5.8025051 36.21946664 5.68359375 33.66796875 C5.64161865 32.79229248 5.59964355 31.91661621 5.55639648 31.0144043 C5.51716064 30.08152588 5.4779248 29.14864746 5.4375 28.1875 C5.3950415 27.24366455 5.35258301 26.2998291 5.30883789 25.32739258 C5.00686036 18.2129964 4.88109748 11.12094011 5 4 C3.02 4 1.04 4 -1 4 C-0.67 2.68 -0.34 1.36 0 0 Z " fill="#F5A436" transform="translate(192,26)"/>
<path d="M0 0 C0 1.32 0 2.64 0 4 C-1.98 4 -3.96 4 -6 4 C-5.93941406 4.59312988 -5.87882813 5.18625977 -5.81640625 5.79736328 C-4.66580942 17.23031295 -3.64668458 28.49762026 -4 40 C-5.32 40 -6.64 40 -8 40 C-8.99 28.45 -9.98 16.9 -11 5 C-12.65 5 -14.3 5 -16 5 C-16 3.68 -16 2.36 -16 1 C-10.59255982 0.22750855 -5.46137814 -0.09752461 0 0 Z " fill="#F6C785" transform="translate(178,77)"/>
<path d="M0 0 C2.475 0.495 2.475 0.495 5 1 C5.66408409 12.68076488 6.15956375 24.29865851 6 36 C8.97 36 11.94 36 15 36 C15 36.99 15 37.98 15 39 C11.98509443 40.00496852 9.95818308 40.10335303 6.8125 40.0625 C5.91144531 40.05347656 5.01039062 40.04445312 4.08203125 40.03515625 C3.39496094 40.02355469 2.70789063 40.01195312 2 40 C1.71240138 35.42863526 1.42767026 30.8571039 1.14550781 26.28540039 C1.04927631 24.73261787 0.95228362 23.17988232 0.85449219 21.62719727 C0.71345422 19.38570099 0.57522306 17.14404586 0.4375 14.90234375 C0.39375244 14.21663803 0.35000488 13.53093231 0.30493164 12.82444763 C0.04525994 8.54329331 -0.03900842 4.28848784 0 0 Z " fill="#F6A437" transform="translate(78,32)"/>
<path d="M0 0 C1.32 0 2.64 0 4 0 C4.28867075 4.24983235 4.57333607 8.4999096 4.85449219 12.75024414 C4.9504302 14.19237282 5.04741146 15.63443254 5.14550781 17.07641602 C5.66509055 24.72435583 6.13713378 32.32907932 6 40 C4.68 40 3.36 40 2 40 C1.12810351 37.38431054 0.82209811 35.62732635 0.68359375 32.9296875 C0.64161865 32.12305664 0.59964355 31.31642578 0.55639648 30.48535156 C0.51716064 29.62393555 0.4779248 28.76251953 0.4375 27.875 C0.3950415 26.99295898 0.35258301 26.11091797 0.30883789 25.20214844 C-0.06526405 16.79878014 -0.09803917 8.40958197 0 0 Z " fill="#F5A437" transform="translate(101,31)"/>
<path d="M0 0 C1.32 0 2.64 0 4 0 C6.38776806 28.15153143 6.38776806 28.15153143 6 40 C4.68 40 3.36 40 2 40 C0.74164834 26.64005361 -0.35541223 13.42668441 0 0 Z " fill="#F6C785" transform="translate(187,76)"/>
<path d="M0 0 C5.75 -0.125 5.75 -0.125 8 1 C8.4140625 4.16015625 8.4140625 4.16015625 8.625 8.0625 C8.69976562 9.35285156 8.77453125 10.64320312 8.8515625 11.97265625 C8.90054688 12.97167969 8.94953125 13.97070312 9 15 C6.36 15 3.72 15 1 15 C-0.00109515 11.68929162 -0.10356134 8.69915231 -0.0625 5.25 C-0.05347656 4.26515625 -0.04445313 3.2803125 -0.03515625 2.265625 C-0.02355469 1.51796875 -0.01195313 0.7703125 0 0 Z " fill="#000000" transform="translate(121,51)"/>
<path d="M0 0 C0.05389087 1.95803507 0.09274217 3.91648909 0.125 5.875 C0.14820313 6.96554688 0.17140625 8.05609375 0.1953125 9.1796875 C0 12 0 12 -2 14 C-3.65 14 -5.3 14 -7 14 C-7.33 9.71 -7.66 5.42 -8 1 C-2 0 -2 0 0 0 Z " fill="#000000" transform="translate(128,33)"/>
<path d="M0 0 C2.08351615 3.58727128 2.80141379 7.20694042 3.625 11.25 C3.88539063 12.51328125 4.14578125 13.7765625 4.4140625 15.078125 C4.60742188 16.04234375 4.80078125 17.0065625 5 18 C3.02 18 1.04 18 -1 18 C-1.09706112 11.88514973 -0.77040851 6.06696699 0 0 Z " fill="#020101" transform="translate(146,89)"/>
<path d="M0 0 C0.33 0.66 0.66 1.32 1 2 C0.34 1.67 -0.32 1.34 -1 1 C-0.67 0.67 -0.34 0.34 0 0 Z " fill="#D3D5D2" transform="translate(45,127)"/>
<path d="M0 0 C0.33 0.66 0.66 1.32 1 2 C0.34 1.67 -0.32 1.34 -1 1 C-0.67 0.67 -0.34 0.34 0 0 Z " fill="#D7D9D6" transform="translate(181,117)"/>
</svg>
